<svg width="18" height="18" viewBox="0 0 18 18" fill="none" xmlns="http://www.w3.org/2000/svg">
  <path d="M2 16H4C4.28333 16 4.52083 16.0958 4.7125 16.2875C4.90417 16.4792 5 16.7167 5 17C5 17.2833 4.90417 17.5208 4.7125 17.7125C4.52083 17.9042 4.28333 18 4 18H1C0.716667 18 0.479167 17.9042 0.2875 17.7125C0.0958333 17.5208 0 17.2833 0 17V14C0 13.7167 0.0958333 13.4792 0.2875 13.2875C0.479167 13.0958 0.716667 13 1 13C1.28333 13 1.52083 13.0958 1.7125 13.2875C1.90417 13.4792 2 13.7167 2 14V16ZM16 16V14C16 13.7167 16.0958 13.4792 16.2875 13.2875C16.4792 13.0958 16.7167 13 17 13C17.2833 13 17.5208 13.0958 17.7125 13.2875C17.9042 13.4792 18 13.7167 18 14V17C18 17.2833 17.9042 17.5208 17.7125 17.7125C17.5208 17.9042 17.2833 18 17 18H14C13.7167 18 13.4792 17.9042 13.2875 17.7125C13.0958 17.5208 13 17.2833 13 17C13 16.7167 13.0958 16.4792 13.2875 16.2875C13.4792 16.0958 13.7167 16 14 16H16ZM2 2V4C2 4.28333 1.90417 4.52083 1.7125 4.7125C1.52083 4.90417 1.28333 5 1 5C0.716667 5 0.479167 4.90417 0.2875 4.7125C0.0958333 4.52083 0 4.28333 0 4V1C0 0.716667 0.0958333 0.479167 0.2875 0.2875C0.479167 0.0958333 0.716667 0 1 0H4C4.28333 0 4.52083 0.0958333 4.7125 0.2875C4.90417 0.479167 5 0.716667 5 1C5 1.28333 4.90417 1.52083 4.7125 1.7125C4.52083 1.90417 4.28333 2 4 2H2ZM16 2H14C13.7167 2 13.4792 1.90417 13.2875 1.7125C13.0958 1.52083 13 1.28333 13 1C13 0.716667 13.0958 0.479167 13.2875 0.2875C13.4792 0.0958333 13.7167 0 14 0H17C17.2833 0 17.5208 0.0958333 17.7125 0.2875C17.9042 0.479167 18 0.716667 18 1V4C18 4.28333 17.9042 4.52083 17.7125 4.7125C17.5208 4.90417 17.2833 5 17 5C16.7167 5 16.4792 4.90417 16.2875 4.7125C16.0958 4.52083 16 4.28333 16 4V2Z" fill="white"/>
</svg>
